<?xml version="1.0" encoding="UTF-8" standalone="no"?>
<!-- Created with Inkscape (http://www.inkscape.org/) -->

<svg
   xmlns:dc="http://purl.org/dc/elements/1.1/"
   xmlns:cc="http://creativecommons.org/ns#"
   xmlns:rdf="http://www.w3.org/1999/02/22-rdf-syntax-ns#"
   xmlns:svg="http://www.w3.org/2000/svg"
   xmlns="http://www.w3.org/2000/svg"
   xmlns:xlink="http://www.w3.org/1999/xlink"
   xmlns:sodipodi="http://sodipodi.sourceforge.net/DTD/sodipodi-0.dtd"
   xmlns:inkscape="http://www.inkscape.org/namespaces/inkscape"
   width="70.486656mm"
   height="42.374722mm"
   viewBox="0 0 70.486656 42.374722"
   version="1.1"
   id="svg8"
   inkscape:version="0.92.2 (5c3e80d, 2017-08-06)"
   sodipodi:docname="golfball.svg">
  <defs
     id="defs2">
    <linearGradient
       inkscape:collect="always"
       id="linearGradient843">
      <stop
         style="stop-color:#cccccc;stop-opacity:0.94117647"
         offset="0"
         id="stop839" />
      <stop
         style="stop-color:#ffffff;stop-opacity:1"
         offset="1"
         id="stop841" />
    </linearGradient>
    <linearGradient
       inkscape:collect="always"
       xlink:href="#linearGradient843"
       id="linearGradient845"
       x1="46.302082"
       y1="40.478188"
       x2="62.425129"
       y2="40.478188"
       gradientUnits="userSpaceOnUse"
       gradientTransform="matrix(2.2820513,1.0866904e-8,-1.0866907e-8,2.2820513,12.073378,-122.57887)" />
    <linearGradient
       inkscape:collect="always"
       xlink:href="#linearGradient843"
       id="linearGradient845-9"
       x1="46.302082"
       y1="40.478188"
       x2="62.425129"
       y2="40.478188"
       gradientUnits="userSpaceOnUse"
       gradientTransform="matrix(7.1757942,4.7853857,-4.7853857,7.1757942,166.10169,-108.95363)" />
    <linearGradient
       inkscape:collect="always"
       xlink:href="#linearGradient843"
       id="linearGradient845-9-8"
       x1="46.302082"
       y1="40.478188"
       x2="62.425129"
       y2="40.478188"
       gradientUnits="userSpaceOnUse"
       gradientTransform="matrix(7.1757942,4.7853857,-4.7853857,7.1757942,431.72664,-108.9536)" />
    <linearGradient
       inkscape:collect="always"
       xlink:href="#linearGradient843"
       id="linearGradient845-9-3"
       x1="46.302082"
       y1="40.478188"
       x2="62.425129"
       y2="40.478188"
       gradientUnits="userSpaceOnUse"
       gradientTransform="matrix(7.1757942,4.7853857,-4.7853857,7.1757942,298.91418,-30.43803)" />
    <linearGradient
       inkscape:collect="always"
       xlink:href="#linearGradient843"
       id="linearGradient845-9-89"
       x1="46.302082"
       y1="40.478188"
       x2="62.425129"
       y2="40.478188"
       gradientUnits="userSpaceOnUse"
       gradientTransform="matrix(7.1757942,4.7853857,-4.7853857,7.1757942,298.91417,-187.46928)" />
  </defs>
  <sodipodi:namedview
     id="base"
     pagecolor="#ffffff"
     bordercolor="#666666"
     borderopacity="1.0"
     inkscape:pageopacity="0.0"
     inkscape:pageshadow="2"
     inkscape:zoom="1.28"
     inkscape:cx="-91.56527"
     inkscape:cy="121.3497"
     inkscape:document-units="mm"
     inkscape:current-layer="layer1"
     showgrid="false"
     inkscape:window-width="1920"
     inkscape:window-height="1017"
     inkscape:window-x="-8"
     inkscape:window-y="-8"
     inkscape:window-maximized="1"
     fit-margin-top="0"
     fit-margin-left="0"
     fit-margin-right="0"
     fit-margin-bottom="0" />
  <metadata
     id="metadata5">
    <rdf:RDF>
      <cc:Work
         rdf:about="">
        <dc:format>image/svg+xml</dc:format>
        <dc:type
           rdf:resource="http://purl.org/dc/dcmitype/StillImage" />
        <dc:title />
      </cc:Work>
    </rdf:RDF>
  </metadata>
  <g
     inkscape:label="Layer 1"
     inkscape:groupmode="layer"
     id="layer1"
     transform="translate(-95.704748,-95.668578)">
    <g
       transform="translate(-2.0670573,16.536458)"
       id="g1148"
       style="opacity:0.24">
      <g
         id="g1146"
         style="">
        <g
           transform="translate(0,-0.7234539)"
           id="g1140"
           style="">
          <path
             id="path1136"
             transform="matrix(0.26458333,0,0,0.26458333,2.0670573,-15.813004)"
             d="m 363.70703,372.13867 a 69.531254,69.531254 0 0 0 -1.98828,0.0645 v 138.96485 a 69.531254,69.531254 0 0 0 58.62891,-30.92969 69.531254,69.531254 0 0 0 -19.26954,-96.42578 69.531254,69.531254 0 0 0 -37.37109,-11.67383 z"
             style="opacity:1;fill:url(#linearGradient845-9);fill-opacity:1;stroke:none;stroke-width:25.87522697;stroke-miterlimit:4;stroke-dasharray:none"
             inkscape:connector-curvature="0" />
          <path
             id="path1138"
             transform="matrix(0.26458333,0,0,0.26458333,2.0670573,-15.813004)"
             d="m 628.125,372.17773 a 69.531254,69.531254 0 0 0 -57.84766,30.9043 69.531254,69.531254 0 0 0 19.26954,96.42578 69.531254,69.531254 0 0 0 38.57812,11.63477 z"
             style="opacity:1;fill:url(#linearGradient845-9-8);fill-opacity:1;stroke:none;stroke-width:25.87522697;stroke-miterlimit:4;stroke-dasharray:none"
             inkscape:connector-curvature="0" />
        </g>
        <path
           id="path1142"
           transform="matrix(0.26458333,0,0,0.26458333,2.0670573,-16.536458)"
           d="m 496.51953,450.6543 a 69.531254,69.531254 0 0 0 -59.05469,30.94336 69.531254,69.531254 0 0 0 -11.58203,40.14062 H 564.81055 A 69.531254,69.531254 0 0 0 533.89062,462.32812 69.531254,69.531254 0 0 0 496.51953,450.6543 Z"
           style="opacity:1;fill:url(#linearGradient845-9-3);fill-opacity:1;stroke:none;stroke-width:25.87522697;stroke-miterlimit:4;stroke-dasharray:none"
           inkscape:connector-curvature="0" />
        <path
           id="path1144"
           transform="matrix(0.26458333,0,0,0.26458333,2.0670573,-16.536458)"
           d="m 425.81445,361.58203 a 69.531254,69.531254 0 0 0 30.91993,59.41016 69.531254,69.531254 0 0 0 96.42578,-19.26953 69.531254,69.531254 0 0 0 11.58203,-40.14063 z"
           style="opacity:1;fill:url(#linearGradient845-9-89);fill-opacity:1;stroke:none;stroke-width:25.87522697;stroke-miterlimit:4;stroke-dasharray:none"
           inkscape:connector-curvature="0" />
      </g>
    </g>
  </g>
</svg>
